<svg width="29" height="29" viewBox="0 0 29 29" fill="none" xmlns="http://www.w3.org/2000/svg">
<g clip-path="url(#clip0)" filter="url(#filter0_dd)">
<path d="M17.3391 10.5088L24.7163 3.13165C25.1056 2.74233 25.1056 2.1058 24.7163 1.71647L23.3011 0.300294C22.9118 -0.0890303 22.2752 -0.0890303 21.8859 0.300294L14.5088 7.67844L7.13163 0.301295C6.7423 -0.0880295 6.10577 -0.0880295 5.71645 0.301295L4.30127 1.71647C3.91195 2.1058 3.91195 2.74233 4.30127 3.13165L11.6784 10.5088L4.30127 17.8859C3.91195 18.2753 3.91195 18.9118 4.30127 19.3011L5.71745 20.7163C6.10678 21.1056 6.74331 21.1056 7.13263 20.7163L14.5098 13.3392L21.8869 20.7163C22.2762 21.1056 22.9128 21.1056 23.3021 20.7163L24.7173 19.3011C25.1066 18.9118 25.1066 18.2753 24.7173 17.8859L17.3391 10.5088Z" fill="#FB565A" fill-opacity="0.3"/>
</g>
<defs>
<filter id="filter0_dd" x="0" y="0" width="29" height="29" filterUnits="userSpaceOnUse" color-interpolation-filters="sRGB">
<feFlood flood-opacity="0" result="BackgroundImageFix"/>
<feColorMatrix in="SourceAlpha" type="matrix" values="0 0 0 0 0 0 0 0 0 0 0 0 0 0 0 0 0 0 127 0"/>
<feOffset dy="4"/>
<feGaussianBlur stdDeviation="2"/>
<feColorMatrix type="matrix" values="0 0 0 0 0 0 0 0 0 0 0 0 0 0 0 0 0 0 0.25 0"/>
<feBlend mode="normal" in2="BackgroundImageFix" result="effect1_dropShadow"/>
<feColorMatrix in="SourceAlpha" type="matrix" values="0 0 0 0 0 0 0 0 0 0 0 0 0 0 0 0 0 0 127 0"/>
<feOffset dy="4"/>
<feGaussianBlur stdDeviation="2"/>
<feColorMatrix type="matrix" values="0 0 0 0 0 0 0 0 0 0 0 0 0 0 0 0 0 0 0.25 0"/>
<feBlend mode="normal" in2="effect1_dropShadow" result="effect2_dropShadow"/>
<feBlend mode="normal" in="SourceGraphic" in2="effect2_dropShadow" result="shape"/>
</filter>
<clipPath id="clip0">
<rect width="21" height="21" fill="white" transform="translate(4)"/>
</clipPath>
</defs>
</svg>
